<?xml version="1.0" encoding="UTF-8" standalone="no"?>
<!-- Generator: Adobe Illustrator 23.1.0, SVG Export Plug-In . SVG Version: 6.00 Build 0)  -->

<svg
   xmlns:dc="http://purl.org/dc/elements/1.1/"
   xmlns:cc="http://creativecommons.org/ns#"
   xmlns:rdf="http://www.w3.org/1999/02/22-rdf-syntax-ns#"
   xmlns:svg="http://www.w3.org/2000/svg"
   xmlns="http://www.w3.org/2000/svg"
   xmlns:xlink="http://www.w3.org/1999/xlink"
   xmlns:sodipodi="http://sodipodi.sourceforge.net/DTD/sodipodi-0.dtd"
   xmlns:inkscape="http://www.inkscape.org/namespaces/inkscape"
   version="1.1"
   id="Layer_1"
   x="0px"
   y="0px"
   viewBox="0 0 970 326"
   xml:space="preserve"
   sodipodi:docname="logo-halogo-2.svg"
   width="970"
   height="326"
   inkscape:version="0.92.4 5da689c313, 2019-01-14"><metadata
   id="metadata171"><rdf:RDF><cc:Work
       rdf:about=""><dc:format>image/svg+xml</dc:format><dc:type
         rdf:resource="http://purl.org/dc/dcmitype/StillImage" /><dc:title></dc:title></cc:Work></rdf:RDF></metadata><defs
   id="defs169" /><sodipodi:namedview
   pagecolor="#ffffff"
   bordercolor="#666666"
   borderopacity="1"
   objecttolerance="10"
   gridtolerance="10"
   guidetolerance="10"
   inkscape:pageopacity="0"
   inkscape:pageshadow="2"
   inkscape:window-width="3440"
   inkscape:window-height="1411"
   id="namedview167"
   showgrid="false"
   inkscape:zoom="0.83162518"
   inkscape:cx="679.12673"
   inkscape:cy="264.25931"
   inkscape:window-x="1920"
   inkscape:window-y="0"
   inkscape:window-maximized="1"
   inkscape:current-layer="Layer_1" />
<style
   type="text/css"
   id="style2">
	.st0{clip-path:url(#SVGID_2_);fill:#FFFFFF;}
	.st1{fill:#FFFFFF;}
	.st2{clip-path:url(#SVGID_4_);fill:#DE0035;}
	.st3{clip-path:url(#SVGID_6_);fill:#004455;}
	.st4{clip-path:url(#SVGID_8_);fill:#FFFFFF;}
	.st5{clip-path:url(#SVGID_10_);fill:#FFFFFF;}
	.st6{clip-path:url(#SVGID_12_);fill:#FFFFFF;}
	.st7{clip-path:url(#SVGID_14_);fill:#FFFFFF;}
	.st8{clip-path:url(#SVGID_16_);fill:#FFFFFF;}
	.st9{clip-path:url(#SVGID_18_);fill:#FFFFFF;}
	.st10{clip-path:url(#SVGID_20_);fill:#FFFFFF;}
	.st11{clip-path:url(#SVGID_22_);fill:#FFFFFF;}
	.st12{clip-path:url(#SVGID_24_);fill:#FFFFFF;}
	.st13{clip-path:url(#SVGID_26_);fill:#FFFFFF;}
	.st14{clip-path:url(#SVGID_28_);fill:#FFFFFF;}
</style>
<g
   id="g164"
   transform="translate(-256.125,-154.61091)">
	<g
   id="g14">
		<g
   id="g12">
			<defs
   id="defs5">
				<rect
   id="SVGID_1_"
   x="256.10001"
   y="155.3"
   width="970.40002"
   height="326.5" />
			</defs>
			<clipPath
   id="SVGID_2_">
				<use
   xlink:href="#SVGID_1_"
   style="overflow:visible"
   id="use7"
   x="0"
   y="0"
   width="100%"
   height="100%" />
			</clipPath>
			<path
   class="st0"
   d="m 900.1,429.8 c 0,-28.7 23.3,-52 52,-52 28.7,0 52,23.3 52,52 0,28.7 -23.3,52 -52,52 -28.6,0 -52,-23.3 -52,-52"
   clip-path="url(#SVGID_2_)"
   id="path10"
   inkscape:connector-curvature="0"
   style="fill:#ffffff" />
		</g>
	</g>
	<polyline
   class="st1"
   points="952.1,380 941,414.4 904.8,414.4 934.1,435.6 922.9,470.1 952.1,448.8 981.4,470.1 970.2,435.7    999.5,414.4 963.3,414.4  "
   id="polyline16"
   style="fill:#ffffff" />
	<g
   id="g38">
		<g
   id="g26">
			<defs
   id="defs19">
				<rect
   id="SVGID_3_"
   x="256.10001"
   y="155.3"
   width="970.40002"
   height="326.5" />
			</defs>
			<clipPath
   id="SVGID_4_">
				<use
   xlink:href="#SVGID_3_"
   style="overflow:visible"
   id="use21"
   x="0"
   y="0"
   width="100%"
   height="100%" />
			</clipPath>
			<path
   class="st2"
   d="m 952.1,380 c 27.5,0 49.8,22.3 49.8,49.8 0,27.5 -22.3,49.8 -49.8,49.8 -10.9,0 -21,-3.5 -29.3,-9.5 l 29.3,-21.3 29.3,21.3 -11.2,-34.4 29.3,-21.3 -65.5,21.3 6.9,-21.3 h 22.4 z"
   clip-path="url(#SVGID_4_)"
   id="path24"
   inkscape:connector-curvature="0"
   style="fill:#de0035" />
		</g>
		<g
   id="g36">
			<defs
   id="defs29">
				<rect
   id="SVGID_5_"
   x="256.10001"
   y="155.3"
   width="970.40002"
   height="326.5" />
			</defs>
			<clipPath
   id="SVGID_6_">
				<use
   xlink:href="#SVGID_5_"
   style="overflow:visible"
   id="use31"
   x="0"
   y="0"
   width="100%"
   height="100%" />
			</clipPath>
			<path
   class="st3"
   d="m 952.1,380 c -27.5,0 -49.8,22.3 -49.8,49.8 0,16.6 8.1,31.2 20.5,40.3 L 934,435.7 904.8,414.4 H 941 Z"
   clip-path="url(#SVGID_6_)"
   id="path34"
   inkscape:connector-curvature="0"
   style="fill:#004455" />
		</g>
	</g>
	<polygon
   class="st1"
   points="1100.8,442.3 1112.7,442.3 1112.7,448.9 1093.1,448.9 1093.1,414.4 1100.8,414.4 "
   id="polygon40"
   style="fill:#ffffff" />
	<polygon
   class="st1"
   points="1133.9,421 1125.6,421 1125.6,448.9 1117.9,448.9 1117.9,421 1109.6,421 1109.6,414.4 1133.9,414.4 "
   id="polygon42"
   style="fill:#ffffff" />
	<polygon
   class="st1"
   points="1064.3,448.9 1072.8,423.3 1081.3,448.9 1089.4,448.9 1076.7,414.4 1068.8,414.4 1056.1,448.9 "
   id="polygon44"
   style="fill:#ffffff" />
	<polyline
   class="st1"
   points="1072.8,442.3 1081.3,448.9 1064.3,448.9 1072.8,442.3  "
   id="polyline46"
   style="fill:#ffffff" />
	<polygon
   class="st1"
   points="1146.3,420.9 1146.3,428 1157.4,428 1157.4,434.6 1146.3,434.6 1146.3,442.2 1161.4,442.2 1156.3,448.9 1138.6,448.9 1138.6,414.4 1157.9,414.4 1157.9,420.9 "
   id="polygon48"
   style="fill:#ffffff" />
	<polygon
   class="st1"
   points="1179.6,423.9 1173.9,414.4 1164,414.4 1174.9,430.2 1160.6,448.8 1170.5,448.8 1179.6,437.1 1188.6,448.8 1198.5,448.8 1184.2,430.2 1195.2,414.4 1185.2,414.4 "
   id="polygon50"
   style="fill:#ffffff" />
	<g
   id="g162">
		<g
   id="g60">
			<defs
   id="defs53">
				<rect
   id="SVGID_7_"
   x="256.10001"
   y="155.3"
   width="970.40002"
   height="326.5" />
			</defs>
			<clipPath
   id="SVGID_8_">
				<use
   xlink:href="#SVGID_7_"
   style="overflow:visible"
   id="use55"
   x="0"
   y="0"
   width="100%"
   height="100%" />
			</clipPath>
			<path
   class="st4"
   d="m 1053.6,448.8 c -2.4,0.6 -5.2,1 -7.3,1 -10.2,0 -18.5,-8.1 -18.5,-18 0,-9.9 8.3,-18 18.5,-18 2.7,0 5.2,0.6 7.3,1.7 v 7.4 c -2.2,-1.1 -4.8,-1.7 -7.3,-1.7 -5.9,0 -10.9,4.7 -10.9,10.6 0,5.9 5,10.5 10.9,10.5 2.3,0 4.9,-0.6 7.3,-1.7 z"
   clip-path="url(#SVGID_8_)"
   id="path58"
   inkscape:connector-curvature="0"
   style="fill:#ffffff" />
		</g>
		<g
   id="g70">
			<defs
   id="defs63">
				<rect
   id="SVGID_9_"
   x="256.10001"
   y="155.3"
   width="970.40002"
   height="326.5" />
			</defs>
			<clipPath
   id="SVGID_10_">
				<use
   xlink:href="#SVGID_9_"
   style="overflow:visible"
   id="use65"
   x="0"
   y="0"
   width="100%"
   height="100%" />
			</clipPath>
			<path
   class="st5"
   d="m 860.3,448.7 -1.9,3.6 c -1.2,2.3 -2.2,3.8 -5,3.8 -0.9,0 -1.8,-0.2 -2.5,-0.5 l -1.1,3.9 c 1.1,0.5 2.5,0.6 3.8,0.6 4.8,0 6.6,-2.7 8.7,-6.6 L 877,425.8 h -4.7 l -9,17.8 h -0.1 l -4.3,-17.8 h -5 z m -23.7,-3.6 c -4.6,0 -7,-3.3 -6.4,-7.9 0.6,-4.6 4,-7.9 8.6,-7.9 4.6,0 7,3.3 6.4,7.9 -0.7,4.6 -4,7.9 -8.6,7.9 m -12.4,3.4 h 4.3 l 0.5,-3.3 h 0.1 c 1.3,2.5 4.3,3.8 7.4,3.8 7.1,0 12.3,-5.2 13.3,-12 1,-6.8 -2.9,-12 -9.9,-12 -3.3,0 -6.6,1.5 -8.5,3.8 h -0.1 l 2.4,-16.8 h -4.3 z M 793,445.1 c -4.6,0 -7,-3.3 -6.4,-7.9 0.6,-4.6 4,-7.9 8.6,-7.9 4.6,0 7,3.3 6.4,7.9 -0.7,4.6 -4,7.9 -8.6,7.9 m 16.4,-32.9 h -4.3 l -2.4,16.8 h -0.1 c -1.2,-2.4 -4.1,-3.8 -7.4,-3.8 -7,0 -12.3,5.1 -13.3,12 -0.9,6.7 2.8,12 9.9,12 3.1,0 6.5,-1.4 8.5,-3.8 h 0.1 l -0.5,3.3 h 4.3 z m -49.6,23.1 c 0.4,-3 3.7,-6.6 8,-6.6 4.4,0 6.1,2.8 5.7,6.6 z m 17.8,3.4 0.2,-1.5 c 0.8,-5.9 -1.4,-12 -9.4,-12 -6.8,0 -12.5,5.1 -13.5,12 -1,6.8 2.8,12 10.1,12 4.4,0 7.9,-1.5 10.8,-4.7 l -2.9,-2.5 c -2,2.1 -4.1,3.4 -6.7,3.4 -4,0 -7.3,-2.6 -6.8,-6.6 z m -34.1,9.8 h 4.3 l 5.1,-36.4 h -4.3 z m -11.6,0 h 4.3 l 5.1,-36.4 H 737 Z M 710,435.3 c 0.4,-3 3.7,-6.6 8,-6.6 4.4,0 6.1,2.8 5.7,6.6 z m 17.8,3.4 0.2,-1.5 c 0.8,-5.9 -1.4,-12 -9.4,-12 -6.8,0 -12.5,5.1 -13.5,12 -1,6.8 2.8,12 10.1,12 4.4,0 7.9,-1.5 10.8,-4.7 l -3,-2.5 c -2,2.1 -4.1,3.4 -6.7,3.4 -4,0 -7.3,-2.6 -6.8,-6.6 z m -26.3,-13 h -4.3 l -1.7,11.7 c -0.7,5.3 -3.8,7.6 -7.4,7.6 -2.7,0 -5,-1.6 -4.4,-5.9 l 1.9,-13.5 h -4.3 l -2.1,14.7 c -0.9,6.1 2.6,8.7 7.1,8.7 3.5,0 6.6,-1.7 8.1,-4.1 h 0.1 l -0.5,3.5 h 4.3 z m -49.9,22.8 h 4.6 l 2.1,-14.7 h 15.6 l 0.6,-4.3 h -15.6 l 1.5,-10.7 h 16.8 l 0.6,-4.3 h -21.4 z"
   clip-path="url(#SVGID_10_)"
   id="path68"
   inkscape:connector-curvature="0"
   style="fill:#ffffff" />
		</g>
		<g
   id="g80">
			<defs
   id="defs73">
				<rect
   id="SVGID_11_"
   x="256.10001"
   y="155.3"
   width="970.40002"
   height="326.5" />
			</defs>
			<clipPath
   id="SVGID_12_">
				<use
   xlink:href="#SVGID_11_"
   style="overflow:visible"
   id="use75"
   x="0"
   y="0"
   width="100%"
   height="100%" />
			</clipPath>
			<path
   class="st6"
   d="m 1206.7,296.7 c 3.2,0 5.8,2.6 5.8,5.8 0,3.2 -2.6,5.8 -5.8,5.8 h -72.4 c -3.2,0 -5.8,-2.6 -5.8,-5.8 0,-3.2 2.6,-5.8 5.8,-5.8 z m 0,-4.9 h -72.4 c -5.9,0 -10.6,4.8 -10.6,10.6 0,5.9 4.8,10.6 10.6,10.6 h 72.4 c 5.9,0 10.6,-4.8 10.6,-10.6 0,-5.8 -4.7,-10.6 -10.6,-10.6"
   clip-path="url(#SVGID_12_)"
   id="path78"
   inkscape:connector-curvature="0"
   style="fill:#ffffff" />
		</g>
		<g
   id="g90">
			<defs
   id="defs83">
				<rect
   id="SVGID_13_"
   x="256.10001"
   y="155.3"
   width="970.40002"
   height="326.5" />
			</defs>
			<clipPath
   id="SVGID_14_">
				<use
   xlink:href="#SVGID_13_"
   style="overflow:visible"
   id="use85"
   x="0"
   y="0"
   width="100%"
   height="100%" />
			</clipPath>
			<path
   class="st7"
   d="m 1211.6,265.3 c 3.1,0 5.6,2.5 5.6,5.6 v 0.3 c 0,3.1 -2.5,5.6 -5.6,5.6 h -77.3 c -3.1,0 -5.6,-2.5 -5.6,-5.6 v -0.3 c 0,-3.1 2.5,-5.6 5.6,-5.6 z m 0,-4.8 h -77.3 c -5.8,0 -10.5,4.7 -10.5,10.5 v 0.3 c 0,5.8 4.7,10.5 10.5,10.5 h 77.3 c 5.8,0 10.5,-4.7 10.5,-10.5 V 271 c 0,-5.8 -4.7,-10.5 -10.5,-10.5"
   clip-path="url(#SVGID_14_)"
   id="path88"
   inkscape:connector-curvature="0"
   style="fill:#ffffff" />
		</g>
		<g
   id="g100">
			<defs
   id="defs93">
				<rect
   id="SVGID_15_"
   x="256.10001"
   y="155.3"
   width="970.40002"
   height="326.5" />
			</defs>
			<clipPath
   id="SVGID_16_">
				<use
   xlink:href="#SVGID_15_"
   style="overflow:visible"
   id="use95"
   x="0"
   y="0"
   width="100%"
   height="100%" />
			</clipPath>
			<path
   class="st8"
   d="m 1216.4,233.9 c 2.9,0 5.3,2.4 5.3,5.3 v 1 c 0,2.9 -2.4,5.3 -5.3,5.3 h -94.1 c -2.9,0 -5.3,-2.4 -5.3,-5.3 v -1 c 0,-2.9 2.4,-5.3 5.3,-5.3 z m 0,-4.8 h -94.1 c -5.6,0 -10.1,4.5 -10.1,10.1 v 1 c 0,5.6 4.5,10.1 10.1,10.1 h 94.1 c 5.6,0 10.1,-4.5 10.1,-10.1 v -1 c 0,-5.6 -4.5,-10.1 -10.1,-10.1"
   clip-path="url(#SVGID_16_)"
   id="path98"
   inkscape:connector-curvature="0"
   style="fill:#ffffff" />
		</g>
		<g
   id="g110">
			<defs
   id="defs103">
				<rect
   id="SVGID_17_"
   x="256.10001"
   y="155.3"
   width="970.40002"
   height="326.5" />
			</defs>
			<clipPath
   id="SVGID_18_">
				<use
   xlink:href="#SVGID_17_"
   style="overflow:visible"
   id="use105"
   x="0"
   y="0"
   width="100%"
   height="100%" />
			</clipPath>
			<path
   class="st9"
   d="m 460,295.7 c -2.3,16.2 5.9,28.7 22.9,28.7 17.1,0 28.8,-12.5 31.1,-28.7 2.2,-15.7 -5.8,-29 -22.9,-29 -17.1,0 -28.9,13.3 -31.1,29 m 81.6,68.2 h -24 c -7.6,0 -13,-11 -12,-18.5 h -0.5 c -9.2,12.7 -24.5,18.5 -38.4,18.5 -35.1,0 -55.3,-31.7 -50.1,-68.4 5.2,-36.7 33.8,-66.9 68.8,-66.9 10.6,0 21.3,2.1 28.8,8.8 2,1.8 4.8,1.3 6.2,-0.6 2.3,-3.2 5.7,-8 9.6,-8 h 29 c 2.5,0 4.4,2.2 4.1,4.6 l -17.4,126.9 c -0.3,2.1 -2.1,3.6 -4.1,3.6"
   clip-path="url(#SVGID_18_)"
   id="path108"
   inkscape:connector-curvature="0"
   style="fill:#ffffff" />
		</g>
		<g
   id="g120">
			<defs
   id="defs113">
				<rect
   id="SVGID_19_"
   x="256.10001"
   y="155.3"
   width="970.40002"
   height="326.5" />
			</defs>
			<clipPath
   id="SVGID_20_">
				<use
   xlink:href="#SVGID_19_"
   style="overflow:visible"
   id="use115"
   x="0"
   y="0"
   width="100%"
   height="100%" />
			</clipPath>
			<path
   class="st10"
   d="m 594.2,363.9 v 0 c -16.9,0 -29.9,-14.9 -27.6,-31.6 L 590,167 c 0.8,-5.5 5.5,-9.7 11.2,-9.7 16.9,0 29.9,14.9 27.6,31.6 l -23.3,165.3 c -0.9,5.6 -5.7,9.7 -11.3,9.7"
   clip-path="url(#SVGID_20_)"
   id="path118"
   inkscape:connector-curvature="0"
   style="fill:#ffffff" />
		</g>
		<g
   id="g130">
			<defs
   id="defs123">
				<rect
   id="SVGID_21_"
   x="256.10001"
   y="155.3"
   width="970.40002"
   height="326.5" />
			</defs>
			<clipPath
   id="SVGID_22_">
				<use
   xlink:href="#SVGID_21_"
   style="overflow:visible"
   id="use125"
   x="0"
   y="0"
   width="100%"
   height="100%" />
			</clipPath>
			<path
   class="st11"
   d="m 387.6,157.3 c -5.6,0 -10.4,4.1 -11.2,9.7 l -11.1,78.7 c -0.4,1.8 -2,3.1 -4,3.1 H 310 l 8.5,-59.9 c 2.4,-16.7 -10.7,-31.6 -27.6,-31.6 -5.6,0 -10.4,4.1 -11.2,9.7 l -23.3,165.3 c -2.4,16.7 10.7,31.6 27.6,31.6 5.6,0 10.4,-4.1 11.2,-9.7 l 9.5,-67.1 h 50.2 c 2.3,0 4.1,1.9 4.1,4.1 l -5.8,41 c -2.4,16.7 10.7,31.6 27.6,31.6 5.6,0 10.4,-4.1 11.2,-9.7 l 23.3,-165.3 c 2.3,-16.6 -10.7,-31.5 -27.7,-31.5"
   clip-path="url(#SVGID_22_)"
   id="path128"
   inkscape:connector-curvature="0"
   style="fill:#ffffff" />
		</g>
		<g
   id="g140">
			<defs
   id="defs133">
				<rect
   id="SVGID_23_"
   x="256.10001"
   y="155.3"
   width="970.40002"
   height="326.5" />
			</defs>
			<clipPath
   id="SVGID_24_">
				<use
   xlink:href="#SVGID_23_"
   style="overflow:visible"
   id="use135"
   x="0"
   y="0"
   width="100%"
   height="100%" />
			</clipPath>
			<path
   class="st12"
   d="m 672.7,296.5 c -2.3,16 5.8,28.4 22.7,28.4 16.9,0 28.4,-12.3 30.7,-28.4 2.2,-15.5 -5.8,-28.6 -22.6,-28.6 -16.9,0 -28.6,13.1 -30.8,28.6 m 97.2,0 c -6.1,42.9 -42.3,67.4 -80,67.4 -37.4,0 -67,-24.2 -60.9,-67.4 6.1,-43.2 42.4,-67.6 80,-67.6 37.6,0 67,24.4 60.9,67.6"
   clip-path="url(#SVGID_24_)"
   id="path138"
   inkscape:connector-curvature="0"
   style="fill:#ffffff" />
		</g>
		<g
   id="g150">
			<defs
   id="defs143">
				<rect
   id="SVGID_25_"
   x="256.10001"
   y="155.3"
   width="970.40002"
   height="326.5" />
			</defs>
			<clipPath
   id="SVGID_26_">
				<use
   xlink:href="#SVGID_25_"
   style="overflow:visible"
   id="use145"
   x="0"
   y="0"
   width="100%"
   height="100%" />
			</clipPath>
			<path
   class="st13"
   d="m 1014.7,296.9 c -1.1,7.8 0.5,14.7 4.4,19.2 3.6,4.1 9,6.3 15.7,6.3 14.6,0 25.9,-10.5 28.1,-26.2 1.1,-7.8 -0.5,-14.7 -4.6,-19.4 -3.6,-4.1 -8.9,-6.3 -15.5,-6.3 -14.4,0 -25.9,10.8 -28.1,26.4 z m 20.1,30.6 c -8.3,0 -15.1,-2.8 -19.6,-8 -4.9,-5.7 -6.9,-14 -5.6,-23.3 v 0 c 2.6,-18.2 16.2,-30.9 33.3,-30.9 8.1,0 14.8,2.8 19.4,8.1 5.1,5.8 7.1,14.2 5.8,23.5 -2.7,18.3 -16,30.6 -33.3,30.6 m 13.5,-96 c -32.9,0 -71.1,20.5 -77.4,65.4 -2.6,18.2 1.3,33.9 11.3,45.4 10.6,12.2 27.3,19 47,19 32.9,0 71.1,-20.4 77.4,-65.2 2.6,-18.4 -1.3,-34.2 -11.4,-45.7 -10.5,-12.2 -27.2,-18.9 -46.9,-18.9 m -19,135 c -21.2,0 -39.3,-7.4 -50.9,-20.8 -11,-12.7 -15.3,-29.8 -12.6,-49.6 6.8,-48 47.5,-69.9 82.6,-69.9 21.2,0 39.2,7.4 50.9,20.7 11.1,12.7 15.4,30 12.6,49.8 -6.9,48 -47.6,69.8 -82.6,69.8"
   clip-path="url(#SVGID_26_)"
   id="path148"
   inkscape:connector-curvature="0"
   style="fill:#ffffff" />
		</g>
		<g
   id="g160">
			<defs
   id="defs153">
				<rect
   id="SVGID_27_"
   x="256.10001"
   y="155.3"
   width="970.40002"
   height="326.5" />
			</defs>
			<clipPath
   id="SVGID_28_">
				<use
   xlink:href="#SVGID_27_"
   style="overflow:visible"
   id="use155"
   x="0"
   y="0"
   width="100%"
   height="100%" />
			</clipPath>
			<path
   class="st14"
   d="m 895.3,160.5 c -8.6,0 -17.5,1.1 -27,3.2 -28.7,6.3 -50.6,23 -65.3,49.5 -13.4,24.2 -17.9,50.4 -13.5,77.9 3.7,23 15.3,41.4 34.5,54.5 15.2,10.4 33.2,15.7 53.5,15.8 12.9,-0.1 19.2,-1.3 29.5,-3.9 12.3,-3 22.6,-7.2 31.6,-12.7 3.6,-2.2 5.4,-4.8 5.9,-8.3 0.6,-4.6 1.3,-9.2 1.9,-13.8 l 0.8,-5.8 c 0.7,-4.9 1.5,-10.8 2.4,-17.1 1.6,-11.4 3.4,-24.1 4.8,-34.1 0.3,-2.4 -0.4,-4.7 -1.9,-6.5 -1.6,-1.8 -3.8,-2.8 -6.2,-2.8 h -58.6 c -0.7,0 -1.3,0.5 -1.4,1.2 l -0.1,0.7 c -1,6.8 1.1,13.6 5.5,18.8 4.5,5.2 11,8.1 17.8,8.1 h 1.2 l 1.6,1.9 -0.3,1.8 c -0.3,2.5 -1.4,11.3 -3.1,24.2 -0.3,2.5 -1.6,4.1 -4,5 -10.7,4 -17.9,5.7 -30,4.2 -19.6,-2.4 -32.5,-13.1 -38.3,-31.9 -4.7,-15.2 -4.3,-31.3 1.2,-49 3.8,-12.1 10.5,-22 19.9,-29.3 12.9,-10 27.1,-13.7 43.6,-11.3 11.6,1.7 20.5,4.9 31.8,11.5 2.3,1.4 2.9,1.2 4.2,-0.7 7,-10 13.2,-18.9 19,-27.3 0.5,-0.8 1.1,-1.9 1,-2.8 -0.2,-0.9 -1.1,-1.6 -1.9,-2.1 l -1.5,-1 c -3.7,-2.4 -7.6,-4.8 -11.6,-6.7 -16.1,-7.6 -31.1,-11.2 -47,-11.2 m -17.9,206 C 856,366.4 837,360.8 821,349.8 c -20.4,-14 -32.7,-33.4 -36.7,-57.9 -4.6,-28.6 0.2,-55.9 14.1,-81.2 15.4,-27.9 38.5,-45.4 68.7,-52.1 28.2,-6.2 51.3,-3.8 77.5,8.3 4.3,2 8.3,4.5 12.2,7 l 1.5,1 c 2.3,1.5 3.8,3.3 4.2,5.4 0.4,2.1 -0.2,4.4 -1.8,6.7 -5.8,8.4 -12,17.4 -19.1,27.4 -3,4.2 -6.7,5 -11.1,2.2 -10.5,-6.1 -18.9,-9.2 -29.8,-10.8 -15,-2.2 -28,1.1 -39.7,10.2 -8.6,6.7 -14.7,15.7 -18.2,26.8 -5.2,16.7 -5.6,31.7 -1.2,45.9 5.2,16.9 16.4,26.1 34,28.3 11,1.4 17.4,-0.1 27.5,-3.9 0.5,-0.2 0.6,-0.3 0.6,-0.3 v 0 c 0,0 0.1,-0.1 0.1,-0.6 1.4,-10.5 2.4,-18.3 2.9,-22.2 -7.3,-0.7 -14,-4.2 -18.8,-9.8 -5.5,-6.3 -7.9,-14.6 -6.8,-22.9 l 0.1,-0.7 c 0.5,-3.2 3.3,-5.6 6.5,-5.6 v 2.9 -2.9 h 58.6 c 3.9,0 7.5,1.7 10.1,4.6 2.5,2.9 3.7,6.8 3.1,10.6 -1.4,10 -3.2,22.6 -4.8,34 -0.9,6.3 -1.7,12.3 -2.4,17.1 l -0.8,5.8 c -0.7,4.6 -1.3,9.2 -1.9,13.8 -0.7,5.1 -3.4,9 -8.3,12 -9.5,5.8 -20.3,10.2 -33.1,13.3 -10.8,2.9 -17.3,4.2 -30.8,4.3"
   clip-path="url(#SVGID_28_)"
   id="path158"
   inkscape:connector-curvature="0"
   style="fill:#ffffff" />
		</g>
	</g>
</g>
</svg>